<?xml version="1.0" standalone="no"?><!DOCTYPE svg PUBLIC "-//W3C//DTD SVG 1.1//EN" "http://www.w3.org/Graphics/SVG/1.1/DTD/svg11.dtd"><svg t="1595398928923" class="icon" viewBox="0 0 1024 1024" version="1.1" xmlns="http://www.w3.org/2000/svg" p-id="4793" xmlns:xlink="http://www.w3.org/1999/xlink" width="200" height="200"><defs><style type="text/css"></style></defs><path d="M272 968a7.968 7.968 0 0 1-3.856-15.008l35.664-19.616a232 232 0 0 0 120.208-203.296V560a8 8 0 0 1 16 0v170.096a248.016 248.016 0 0 1-128.48 217.312l-35.664 19.616A8.272 8.272 0 0 1 272 968zM752 968a8 8 0 0 1-3.856-0.992l-35.664-19.616A248 248 0 0 1 584 730.08V560a8 8 0 0 1 16 0v170.096a232 232 0 0 0 120.208 203.296l35.664 19.616A8 8 0 0 1 752 968z" fill="#263238" p-id="4794"></path><path d="M200 968a8 8 0 0 1-8-8c0-110.288 89.712-200 200-200 0.992 0 1.968 0.064 2.96 0.128l1.616 0.08a8 8 0 0 1-0.176 16h-0.176L392 776C290.544 776 208 858.544 208 960a8 8 0 0 1-8 8zM824 968a8 8 0 0 1-8-8c0-101.456-82.544-184-184-184l-4.224 0.224h-0.176a8 8 0 0 1-0.176-16l1.616-0.08c0.992-0.064 1.952-0.128 2.96-0.128C742.288 760 832 849.712 832 960a8 8 0 0 1-8 8zM40 968A8 8 0 0 1 32 960c0-83.808 68.192-152 152-152 11.728 0 23.616 1.424 35.28 4.224a8 8 0 1 1-3.76 15.568 134.864 134.864 0 0 0-31.52-3.792C109.008 824 48 885.008 48 960a8 8 0 0 1-8 8zM984 968a8 8 0 0 1-8-8c0-74.992-61.008-136-136-136-10.48 0-21.088 1.28-31.536 3.792a8.016 8.016 0 0 1-3.76-15.568 151.472 151.472 0 0 1 35.28-4.224c83.808 0 152 68.192 152 152a7.984 7.984 0 0 1-7.984 8z" fill="#263238" p-id="4795"></path><path d="M872 160c-10.24 0-20.208 1.104-29.84 3.136A191.104 191.104 0 0 0 712 112c-16.608 0-32.64 2.336-48.016 6.304C622.592 84.384 569.68 64 512 64s-110.592 20.384-151.984 54.304A191.68 191.68 0 0 0 312 112a191.104 191.104 0 0 0-130.16 51.136A144 144 0 0 0 8 304a144 144 0 0 0 173.84 140.864A191.104 191.104 0 0 0 312 496c16.608 0 32.64-2.336 48.016-6.304C401.408 523.616 454.32 544 512 544s110.592-20.384 151.984-54.304A191.68 191.68 0 0 0 712 496c50.288 0 95.92-19.488 130.16-51.136A144 144 0 0 0 1016 304a144 144 0 0 0-144-144z" fill="#FFD740" p-id="4796"></path><path d="M290.272 220.16a8 8 0 0 1-7.392-11.056 246.368 246.368 0 0 1 134.224-134.224 8 8 0 0 1 6.112 14.784 230.48 230.48 0 0 0-125.568 125.568 8 8 0 0 1-7.376 4.928zM152 456a150.96 150.96 0 0 1-107.488-44.528c-59.264-59.264-59.264-155.68 0-214.96a8 8 0 0 1 11.312 11.312c-53.024 53.024-53.024 139.312 0 192.336 25.68 25.68 59.84 39.84 96.176 39.84s70.48-14.144 96.176-39.84a8 8 0 0 1 11.312 11.312A150.96 150.96 0 0 1 152 456z" fill="#263238" p-id="4797"></path><path d="M312 504c-53.44 0-103.664-20.8-141.424-58.576-77.984-77.984-77.984-204.864 0-282.848 77.968-77.968 204.88-77.968 282.848 0a8 8 0 0 1-11.312 11.312c-71.744-71.728-188.464-71.728-260.224 0-71.728 71.744-71.728 188.48 0 260.224 34.752 34.752 80.96 53.888 130.112 53.888s95.36-19.136 130.112-53.888a8 8 0 0 1 11.312 11.312A198.64 198.64 0 0 1 312 504zM973.824 413.824a8 8 0 0 1-5.664-13.648c53.024-53.024 53.024-139.312 0-192.336-25.68-25.68-59.84-39.84-96.176-39.84s-70.48 14.144-96.176 39.84a8 8 0 0 1-11.312-11.312C793.216 167.808 831.392 152 872 152s78.784 15.808 107.488 44.528c59.264 59.264 59.264 155.68 0 214.96a8.032 8.032 0 0 1-5.664 2.336z" fill="#263238" p-id="4798"></path><path d="M712 503.904a199.36 199.36 0 0 1-141.424-58.48 8 8 0 0 1 11.312-11.312c71.744 71.728 188.464 71.728 260.224 0 71.728-71.744 71.728-188.48 0-260.224C807.36 139.136 761.152 120 712 120s-95.36 19.136-130.112 53.888a8 8 0 0 1-11.312-11.312C608.336 124.8 658.56 104 712 104s103.664 20.8 141.424 58.576c77.984 77.984 77.984 204.864 0 282.848a199.44 199.44 0 0 1-141.424 58.48z" fill="#263238" p-id="4799"></path><path d="M611.84 533.728a8 8 0 0 1-3.056-15.392 230.48 230.48 0 0 0 125.568-125.568 8 8 0 0 1 14.784 6.112 246.368 246.368 0 0 1-134.224 134.224 7.76 7.76 0 0 1-3.072 0.624zM1016 968h-352a8 8 0 0 1 0-16h352a8 8 0 0 1 0 16zM616 968h-48a8 8 0 0 1 0-16h48a8 8 0 0 1 0 16zM520 968H8a8 8 0 0 1 0-16h512a8 8 0 0 1 0 16zM632 648h-240a8 8 0 0 1 0-16h240a8 8 0 0 1 0 16zM352 648h-32a8 8 0 0 1 0-16h32a8 8 0 0 1 0 16z" fill="#263238" p-id="4800"></path></svg>