<svg xmlns="http://www.w3.org/2000/svg"  viewBox="0 0 40 40" width="240px" height="240px"><path fill="#fff" d="M10,37.5c-4.136,0-7.5-3.364-7.5-7.5V10c0-4.136,3.364-7.5,7.5-7.5h20c4.136,0,7.5,3.364,7.5,7.5v20 c0,4.136-3.364,7.5-7.5,7.5H10z"/><path fill="#4788c7" d="M30,3c3.86,0,7,3.14,7,7v20c0,3.86-3.14,7-7,7H10c-3.86,0-7-3.14-7-7V10c0-3.86,3.14-7,7-7H30 M30,2H10c-4.418,0-8,3.582-8,8v20c0,4.418,3.582,8,8,8h20c4.418,0,8-3.582,8-8V10C38,5.582,34.418,2,30,2L30,2z"/><polygon fill="#b6dcfe" points="32.5,13.5 32.5,9.5 30.5,9.5 30.5,7.5 21.5,7.5 21.5,9.5 20.5,9.5 20.5,16.5 18.5,16.5 18.5,18.5 16.5,18.5 16.5,20.5 15.5,20.5 15.5,21.5 13.5,21.5 13.5,22.5 10.5,22.5 10.5,21.5 9.5,21.5 9.5,19.5 7.5,19.5 7.5,16.5 6.5,16.5 6.5,23.5 8.5,23.5 8.5,25.5 9.5,25.5 9.5,27.5 10.5,27.5 10.5,28.5 12.5,28.5 12.5,29.5 13.5,29.5 13.5,34.5 15.5,34.5 15.5,33.5 14.5,33.5 14.5,31.5 15.5,31.5 15.5,30.5 16.5,30.5 16.5,29.5 18.5,29.5 18.5,30.5 19.5,30.5 19.5,34.5 21.5,34.5 21.5,33.5 20.5,33.5 20.5,28.5 21.5,28.5 21.5,26.5 23.5,26.5 23.5,24.5 24.5,24.5 24.5,20.5 26.5,20.5 26.5,21.5 27.5,21.5 27.5,19.5 24.5,19.5 24.5,16.5 30.5,16.5 30.5,15.5 26.5,15.5 26.5,13.5"/><path fill="#4788c7" d="M21.5,35h-2c-0.276,0-0.5-0.224-0.5-0.5V31h-0.5c-0.276,0-0.5-0.224-0.5-0.5V30h-1v0.5 c0,0.276-0.224,0.5-0.5,0.5H16v0.5c0,0.276-0.224,0.5-0.5,0.5H15v1h0.5c0.276,0,0.5,0.224,0.5,0.5v1c0,0.276-0.224,0.5-0.5,0.5h-2 c-0.276,0-0.5-0.224-0.5-0.5V30h-0.5c-0.276,0-0.5-0.224-0.5-0.5V29h-1.5c-0.276,0-0.5-0.224-0.5-0.5V28H9.5 C9.224,28,9,27.776,9,27.5V26H8.5C8.224,26,8,25.776,8,25.5V24H6.5C6.224,24,6,23.776,6,23.5v-7C6,16.224,6.224,16,6.5,16h1 C7.776,16,8,16.224,8,16.5V19h1.5c0.276,0,0.5,0.224,0.5,0.5V21h0.5c0.276,0,0.5,0.224,0.5,0.5V22h2v-0.5 c0-0.276,0.224-0.5,0.5-0.5H15v-0.5c0-0.276,0.224-0.5,0.5-0.5H16v-1.5c0-0.276,0.224-0.5,0.5-0.5H18v-1.5 c0-0.276,0.224-0.5,0.5-0.5H20V9.5C20,9.224,20.224,9,20.5,9H21V7.5C21,7.224,21.224,7,21.5,7h9C30.776,7,31,7.224,31,7.5V9h1.5 C32.776,9,33,9.224,33,9.5v4c0,0.276-0.224,0.5-0.5,0.5H27v1h3.5c0.276,0,0.5,0.224,0.5,0.5v1c0,0.276-0.224,0.5-0.5,0.5H25v2h2.5 c0.276,0,0.5,0.224,0.5,0.5v2c0,0.276-0.224,0.5-0.5,0.5h-1c-0.276,0-0.5-0.224-0.5-0.5V21h-1v3.5c0,0.276-0.224,0.5-0.5,0.5H24 v1.5c0,0.276-0.224,0.5-0.5,0.5H22v1.5c0,0.276-0.224,0.5-0.5,0.5H21v4h0.5c0.276,0,0.5,0.224,0.5,0.5v1 C22,34.776,21.776,35,21.5,35z M20,34h1h-0.5c-0.276,0-0.5-0.224-0.5-0.5V34z M14,34h0.5c-0.276,0-0.5-0.224-0.5-0.5v-2 c0-0.276,0.224-0.5,0.5-0.5H15v-0.5c0-0.276,0.224-0.5,0.5-0.5H16v-0.5c0-0.276,0.224-0.5,0.5-0.5h2c0.276,0,0.5,0.224,0.5,0.5V30 h0.5c0.276,0,0.5,0.224,0.5,0.5v-2c0-0.276,0.224-0.5,0.5-0.5H21v-1.5c0-0.276,0.224-0.5,0.5-0.5H23v-1.5 c0-0.276,0.224-0.5,0.5-0.5H24v-3.5c0-0.276,0.224-0.5,0.5-0.5c-0.276,0-0.5-0.224-0.5-0.5v-3c0-0.276,0.224-0.5,0.5-0.5h2 c-0.276,0-0.5-0.224-0.5-0.5v-2c0-0.276,0.224-0.5,0.5-0.5H32v-3h-1.5C30.224,10,30,9.776,30,9.5V8h-8v1.5 c0,0.276-0.224,0.5-0.5,0.5H21v6.5c0,0.276-0.224,0.5-0.5,0.5H19v1.5c0,0.276-0.224,0.5-0.5,0.5H17v1.5c0,0.276-0.224,0.5-0.5,0.5 H16v0.5c0,0.276-0.224,0.5-0.5,0.5H14v0.5c0,0.276-0.224,0.5-0.5,0.5h-3c-0.276,0-0.5-0.224-0.5-0.5V22H9.5 C9.224,22,9,21.776,9,21.5V20H7.5C7.224,20,7,19.776,7,19.5V23h1.5C8.776,23,9,23.224,9,23.5V25h0.5c0.276,0,0.5,0.224,0.5,0.5V27 h0.5c0.276,0,0.5,0.224,0.5,0.5V28h1.5c0.276,0,0.5,0.224,0.5,0.5V29h0.5c0.276,0,0.5,0.224,0.5,0.5V34z M27,21v-1h-0.5 c0.276,0,0.5,0.224,0.5,0.5V21z"/><path fill="#fff" d="M23.625,11h-0.75c-0.207,0-0.375-0.168-0.375-0.375v-0.75c0-0.207,0.168-0.375,0.375-0.375h0.75	C23.832,9.5,24,9.668,24,9.875v0.75C24,10.832,23.832,11,23.625,11z"/></svg>